<?xml version="1.0" standalone="no"?>
<!DOCTYPE svg PUBLIC "-//W3C//DTD SVG 20010904//EN"
 "http://www.w3.org/TR/2001/REC-SVG-20010904/DTD/svg10.dtd">
<svg version="1.0" xmlns="http://www.w3.org/2000/svg"
 width="1654.000000pt" height="1654.000000pt" viewBox="0 0 1654.000000 1654.000000"
 preserveAspectRatio="xMidYMid meet">

<g transform="translate(0.000000,1654.000000) scale(0.100000,-0.100000)"
fill="#000000" stroke="none">
<path d="M7990 15439 c-2268 -86 -4371 -1259 -5662 -3159 -1198 -1762 -1544
-3977 -943 -6025 491 -1671 1594 -3126 3080 -4062 1532 -965 3377 -1311 5160
-968 2732 525 4941 2624 5611 5330 307 1239 273 2556 -95 3776 -657 2176
-2331 3936 -4470 4698 -560 200 -1151 331 -1743 386 -157 15 -616 36 -703 33
-22 -1 -128 -4 -235 -9z m840 -414 c1152 -101 2215 -471 3168 -1102 1466 -971
2500 -2466 2886 -4173 113 -500 160 -936 160 -1480 0 -544 -47 -980 -160
-1480 -577 -2552 -2582 -4557 -5134 -5134 -500 -113 -936 -160 -1480 -160
-544 0 -980 47 -1480 160 -2552 577 -4557 2582 -5134 5134 -113 500 -160 936
-160 1480 0 544 47 980 160 1480 653 2887 3118 5033 6059 5274 105 9 224 18
265 20 155 8 681 -4 850 -19z"/>
<path d="M7925 14830 c-1188 -67 -2293 -433 -3275 -1085 -545 -361 -1002 -770
-1420 -1270 -1248 -1493 -1768 -3451 -1424 -5370 373 -2084 1757 -3881 3687
-4786 1156 -542 2449 -732 3727 -548 1503 216 2895 963 3931 2109 871 964
1444 2191 1623 3475 47 336 59 533 59 915 0 382 -12 579 -59 915 -255 1833
-1295 3491 -2840 4532 -936 630 -1985 1000 -3114 1098 -214 19 -691 27 -895
15z m852 -155 c93 -28 155 -92 178 -186 8 -32 -1 -36 -90 -45 -63 -7 -65 -6
-65 16 0 33 -58 86 -103 94 -54 10 -124 -25 -150 -76 -27 -55 -41 -158 -28
-218 20 -91 62 -130 141 -130 53 0 92 27 120 84 l21 44 67 -26 c37 -14 69 -27
71 -29 11 -8 -35 -97 -68 -130 -59 -61 -102 -78 -201 -78 -108 0 -172 27 -234
96 -61 68 -80 133 -74 257 6 123 32 195 94 256 78 78 203 106 321 71z m421
-50 l54 -7 -7 -62 c-9 -74 -10 -77 -38 -72 -12 3 -44 8 -70 11 l-49 6 7 52
c10 76 14 88 33 83 9 -2 41 -8 70 -11z m-1178 -137 c0 -13 7 -104 15 -203 8
-99 15 -201 15 -227 l0 -46 -69 -4 -70 -3 -6 60 c-3 33 -6 76 -8 95 -5 79 -75
29 -136 -98 l-34 -71 -72 -6 c-111 -11 -110 -13 -50 93 29 51 57 98 63 104 8
8 2 16 -21 28 -45 24 -71 74 -71 136 0 105 41 131 238 149 209 19 206 19 206
-7z m1163 -44 c47 -6 47 -7 42 -38 -3 -17 -18 -124 -34 -239 -15 -114 -30
-210 -33 -213 -3 -2 -36 -2 -73 2 l-67 7 5 51 c4 28 18 140 33 249 l27 198 26
-5 c14 -3 47 -8 74 -12z m-1800 -18 c85 -35 137 -136 137 -264 -1 -113 -44
-192 -123 -221 -41 -16 -113 -13 -148 5 l-30 15 6 -33 c3 -18 12 -68 19 -110
l13 -77 -69 -11 c-38 -7 -71 -10 -73 -8 -2 2 -27 141 -55 308 -28 168 -53 317
-56 331 -5 25 -2 27 43 34 26 3 58 9 71 12 19 4 22 1 22 -23 l0 -28 16 22 c38
55 153 79 227 48z m2115 -41 c3 -2 -3 -43 -12 -91 -10 -47 -14 -89 -11 -92 4
-4 17 6 29 22 69 94 85 112 110 124 18 9 43 12 69 8 63 -10 68 -15 61 -70 -6
-43 -9 -47 -33 -46 -44 3 -47 2 -90 -56 -41 -55 -42 -57 -25 -82 18 -28 87
-242 80 -249 -4 -4 -97 11 -137 23 -11 3 -22 30 -34 87 -19 89 -42 144 -55
131 -4 -5 -15 -51 -25 -102 -14 -76 -21 -92 -34 -88 -9 2 -34 7 -56 11 -82 13
-84 -34 15 451 l11 51 66 -14 c37 -7 69 -16 71 -18z m-2680 -101 c88 -44 134
-124 135 -234 1 -81 -24 -141 -80 -191 -51 -46 -101 -63 -183 -63 -151 0 -245
104 -245 269 1 75 16 117 64 168 72 79 209 101 309 51z m3258 -29 c214 -64
236 -372 34 -478 -49 -26 -63 -28 -125 -25 -81 6 -137 30 -189 84 -47 48 -59
90 -54 184 4 61 10 87 32 123 64 110 174 150 302 112z m-4114 -346 c70 -162
127 -301 127 -310 1 -10 -22 -25 -65 -43 -37 -15 -68 -25 -70 -24 -2 3 -239
551 -261 605 -5 13 112 74 132 69 5 -1 67 -135 137 -297z m401 252 c9 -27 17
-53 17 -59 0 -6 -40 -25 -89 -42 l-89 -32 15 -42 c8 -22 36 -102 63 -176 l48
-136 -65 -23 c-36 -12 -69 -19 -74 -14 -8 8 -170 455 -166 458 3 3 312 114
317 114 3 1 13 -21 23 -48z m4153 -63 c36 -16 44 -23 39 -39 -6 -17 -2 -18 38
-13 81 11 159 -31 197 -107 41 -80 17 -219 -54 -312 -35 -45 -116 -87 -171
-87 -53 0 -124 36 -152 78 l-22 34 -14 -34 c-8 -18 -27 -62 -42 -98 -15 -36
-28 -66 -30 -68 -1 -1 -32 11 -69 27 l-67 30 16 38 c9 21 68 161 132 311 129
302 110 280 199 240z m650 -287 c50 -23 110 -75 130 -112 16 -32 19 -149 4
-149 -6 0 -38 8 -70 18 -59 17 -60 17 -60 54 0 73 -91 105 -143 51 -49 -52
-78 -142 -61 -188 7 -18 55 -45 80 -45 10 0 30 12 46 26 l27 27 56 -42 c30
-23 55 -45 55 -49 0 -13 -52 -58 -87 -76 -114 -57 -294 36 -323 167 -19 85 11
182 82 263 63 71 176 95 264 55z m-5827 -325 c94 -152 119 -201 109 -208 -40
-27 -99 -60 -102 -57 -1 2 -29 48 -62 102 -32 54 -60 94 -62 89 -1 -4 9 -62
22 -127 13 -66 24 -120 23 -121 -1 0 -25 -14 -53 -31 l-52 -31 -97 79 c-54 43
-100 79 -103 79 -2 0 3 -11 12 -25 33 -50 106 -173 106 -178 0 -6 -94 -67
-102 -67 -8 0 -258 405 -258 417 0 8 130 93 143 93 3 0 56 -41 119 -91 62 -51
118 -96 124 -101 7 -5 -2 57 -21 149 -19 87 -31 160 -29 163 3 2 35 23 72 47
51 32 70 39 78 30 6 -7 66 -102 133 -211z m6207 102 c29 -18 54 -39 54 -46 0
-7 -23 -46 -50 -87 l-50 -74 90 -61 c101 -68 120 -91 127 -154 4 -34 0 -54
-18 -86 -28 -50 -63 -70 -119 -70 -56 0 -86 14 -238 113 l-132 86 107 163
c135 207 163 248 169 248 4 0 30 -15 60 -32z m-5897 -118 c18 -33 29 -65 26
-70 -4 -6 -32 -24 -64 -40 l-58 -29 -34 66 c-19 36 -29 67 -24 69 6 3 33 18
60 34 28 16 53 30 56 30 3 0 21 -27 38 -60z m-1124 -66 c19 -26 35 -50 35 -54
0 -4 -25 -27 -56 -50 -53 -40 -56 -41 -70 -23 -39 51 -67 94 -63 97 22 22 97
75 106 75 7 1 28 -20 48 -45z m219 -293 c80 -107 143 -197 141 -201 -6 -10
-115 -83 -119 -79 -46 56 -286 385 -286 393 0 12 101 86 112 83 4 -1 73 -89
152 -196z m7308 127 l48 -40 -55 -67 c-51 -63 -66 -91 -48 -91 3 0 31 14 62
31 73 41 104 50 143 38 38 -11 88 -52 88 -71 -1 -7 -13 -27 -28 -45 l-28 -32
-28 18 c-28 18 -28 18 -96 -12 -67 -31 -68 -31 -63 -67 4 -30 -30 -246 -40
-257 -7 -6 -117 87 -117 100 0 7 9 53 21 103 31 129 22 143 -42 63 -28 -35
-57 -72 -64 -83 -13 -17 -17 -16 -69 25 -31 24 -56 47 -56 52 0 4 33 49 73
100 40 51 108 136 151 190 48 61 82 95 89 91 7 -4 33 -25 59 -46z m-7733 -350
l221 -247 -46 -43 c-25 -24 -52 -46 -60 -51 -15 -8 -5 -19 -277 286 l-187 209
53 49 c28 27 57 48 63 46 6 -1 111 -113 233 -249z m-216 -186 l237 -237 -55
-55 -55 -55 -193 193 -192 192 -83 -82 -82 -83 192 -192 193 -193 -55 -55 -55
-55 -240 240 -240 240 190 190 c104 104 192 190 195 190 3 0 112 -107 243
-238z m8375 179 c45 -23 103 -83 128 -131 22 -44 23 -151 2 -201 -43 -99 -141
-164 -248 -163 -99 1 -187 59 -234 152 -67 132 13 299 171 358 48 18 131 11
181 -15z m-1201 -65 c59 -25 137 -112 153 -170 16 -57 9 -170 -13 -211 -9 -17
-110 -126 -224 -243 l-208 -213 -110 45 c-241 98 -593 122 -848 57 -472 -121
-768 -536 -901 -1262 -68 -368 -85 -674 -87 -1524 l-1 -660 98 -28 c468 -133
949 -313 1311 -491 873 -431 1369 -962 1472 -1577 38 -228 36 -537 -4 -734
-139 -673 -757 -1202 -1814 -1555 -634 -212 -1534 -382 -2556 -484 -710 -71
-1225 -97 -1945 -97 -547 0 -553 1 -646 64 -27 18 -62 53 -79 81 -25 42 -31
62 -34 127 -5 111 15 147 209 379 89 107 163 196 164 197 1 2 62 -6 134 -17
361 -53 698 -47 1027 16 151 30 360 96 461 147 264 133 701 512 848 735 138
210 262 481 349 762 164 531 251 1143 315 2227 l17 292 -95 26 c-223 63 -612
182 -840 257 -885 290 -1405 551 -1734 868 -274 265 -396 543 -396 905 0 569
339 1034 1000 1369 501 255 1128 420 2035 535 384 49 544 64 1460 136 794 62
790 62 1160 61 248 -1 285 -3 322 -20z m1631 -365 c62 -66 112 -123 112 -128
0 -5 -18 -27 -41 -48 l-41 -40 -68 72 -68 73 -99 -92 c-54 -51 -115 -108 -136
-127 l-37 -35 -50 49 c-28 27 -49 53 -47 58 3 11 350 336 358 337 3 0 56 -54
117 -119z m-9479 -40 l45 -38 -22 -28 c-31 -39 -28 -63 18 -141 22 -38 40 -81
40 -97 0 -24 2 -26 19 -17 11 5 37 10 58 10 41 0 319 -53 329 -63 3 -3 -18
-35 -47 -72 -41 -52 -57 -66 -73 -62 -201 44 -278 57 -297 47 -19 -10 -15 -16
53 -69 40 -31 90 -70 111 -85 20 -16 37 -33 37 -38 0 -11 -82 -118 -90 -118
-7 0 -489 376 -514 400 -18 18 -18 19 25 74 24 31 48 56 52 56 5 0 54 -36 110
-80 56 -44 105 -80 110 -80 19 0 3 58 -31 118 -55 96 -65 126 -59 178 4 40 61
145 77 144 3 0 25 -18 49 -39z m9699 -247 c159 -79 199 -287 79 -407 -136
-136 -338 -109 -425 57 -35 67 -37 161 -5 222 69 130 230 189 351 128z m625
-811 l27 -51 -90 -49 c-49 -26 -90 -51 -90 -56 0 -8 52 -112 69 -136 7 -11 26
-5 101 33 87 45 92 47 105 29 19 -25 49 -92 44 -98 -11 -10 -455 -245 -464
-245 -5 0 -22 24 -38 53 -32 61 -37 54 85 117 l79 41 -42 79 -43 79 -92 -49
c-50 -28 -94 -50 -97 -50 -10 0 -68 115 -60 117 4 2 107 57 228 123 121 65
227 118 235 117 8 -1 27 -25 43 -54z m-10920 -46 l21 -37 -37 -34 c-47 -43
-82 -118 -68 -145 22 -41 50 -33 120 33 90 85 108 96 162 96 88 0 149 -68 149
-165 0 -92 -78 -214 -165 -259 l-29 -15 -27 46 -27 46 36 27 c97 71 127 164
61 185 -17 6 -35 -7 -93 -63 -82 -81 -101 -92 -153 -92 -51 0 -103 27 -130 69
-58 87 2 265 112 332 38 24 41 22 68 -24z m-293 -493 c22 -9 40 -20 40 -25 0
-5 -18 -54 -41 -110 -22 -56 -36 -105 -32 -110 15 -14 83 -38 87 -31 2 4 19
43 36 87 17 44 35 84 39 88 4 4 28 -1 54 -12 l46 -20 -38 -95 -39 -94 51 -21
c27 -12 51 -20 53 -19 1 2 21 50 44 108 23 58 45 108 48 111 4 4 28 -3 54 -15
l47 -21 -67 -167 c-37 -92 -70 -170 -74 -174 -6 -5 -484 179 -497 192 -7 7
131 344 141 344 4 0 26 -7 48 -16z m11529 -110 c11 -31 21 -57 21 -58 0 -5
-410 -381 -418 -384 -7 -2 -52 105 -52 125 0 6 20 27 45 47 25 21 45 42 45 49
0 6 -12 40 -27 76 l-27 66 -70 0 -70 0 -22 55 c-12 30 -21 56 -19 58 4 4 333
18 471 20 l101 2 22 -56z m129 -331 l20 -62 -113 -93 -113 -93 146 -5 145 -5
20 -58 c10 -32 17 -61 13 -64 -3 -3 -120 4 -261 15 -204 16 -261 24 -286 39
-51 29 -72 66 -77 133 l-4 60 55 0 c54 0 56 -1 55 -28 -1 -33 18 -72 35 -72 7
1 84 70 172 155 88 84 163 150 166 147 4 -4 16 -35 27 -69z m-11827 -187 c-54
-59 -68 -152 -30 -200 51 -64 185 -96 246 -57 47 29 67 75 67 148 l0 61 43 7
c24 3 47 4 52 1 30 -19 18 -163 -19 -236 -24 -46 -76 -95 -122 -114 -82 -35
-236 -11 -314 49 -48 37 -84 104 -91 168 -8 77 25 183 72 233 l36 37 39 -38
c39 -38 40 -39 21 -59z m11988 -341 c7 -31 10 -59 7 -62 -3 -3 -47 -16 -98
-28 -103 -23 -116 -37 -76 -78 19 -19 43 -27 121 -37 l97 -14 10 -36 c18 -67
23 -100 14 -100 -16 1 -238 48 -261 55 -16 5 -23 2 -28 -14 -5 -17 -203 -181
-218 -181 -3 0 -10 24 -17 53 -6 28 -14 60 -16 69 -3 11 19 35 75 78 83 62
101 84 101 119 0 32 -17 34 -111 11 -49 -12 -95 -20 -102 -17 -14 5 -41 106
-31 116 8 8 507 130 515 125 3 -2 11 -28 18 -59z m-11995 -260 c137 -25 251
-47 253 -49 2 -2 -2 -33 -8 -70 l-12 -66 -173 -57 c-96 -32 -168 -60 -161 -64
6 -3 73 -16 147 -29 74 -13 139 -26 143 -30 9 -8 0 -89 -12 -108 -5 -9 -77 1
-267 35 -142 26 -260 47 -261 48 -1 0 3 31 10 68 l11 67 173 57 c95 32 173 60
173 64 0 3 -68 17 -151 32 -84 14 -154 28 -156 31 -9 9 19 116 30 116 7 0 124
-20 261 -45z m12031 -260 c66 -41 106 -113 113 -203 6 -87 -10 -144 -55 -193
-47 -52 -95 -76 -180 -90 -132 -23 -240 24 -292 126 -36 69 -37 198 -3 262 47
89 147 135 283 131 75 -3 91 -7 134 -33z m-12151 -400 c131 -14 247 -25 258
-25 17 0 18 -5 12 -62 -4 -35 -8 -65 -10 -67 -3 -4 -527 49 -532 53 -8 8 13
126 22 126 7 0 119 -11 250 -25z m12306 -254 l0 -58 -46 -7 c-26 -3 -73 -6
-105 -6 -56 0 -59 -1 -59 -25 0 -19 5 -25 23 -25 30 -1 106 -36 135 -63 93
-86 93 -277 1 -367 -53 -51 -112 -70 -218 -70 -69 0 -96 5 -137 24 -89 41
-134 118 -134 226 0 70 16 121 53 166 30 36 115 84 150 84 11 0 17 8 17 25 l0
25 -110 0 -110 0 0 65 0 65 270 0 270 0 0 -59z m-12330 -135 l265 -104 3 -53
c2 -33 -2 -60 -10 -71 -11 -13 -501 -188 -529 -188 -10 0 -12 92 -3 125 4 17
36 29 182 69 97 27 180 51 184 55 4 3 -76 33 -178 65 l-184 60 0 73 c0 40 1
73 3 73 1 0 121 -47 267 -104z m12060 -788 c140 -17 256 -32 257 -32 3 -2 -55
-428 -59 -432 -4 -4 -458 52 -506 62 -23 5 -24 7 -17 67 4 34 8 63 9 64 1 1
96 -11 211 -26 135 -18 212 -24 216 -18 8 12 23 157 16 163 -2 2 -96 16 -208
31 -112 14 -206 27 -208 29 -9 7 12 124 22 124 7 0 127 -14 267 -32z m-11721
-415 c16 -81 16 -80 -39 -108 -28 -14 -53 -31 -56 -38 -4 -12 20 -144 28 -152
2 -2 33 -8 68 -12 l64 -8 13 -64 c7 -35 12 -65 11 -66 -2 -2 -129 17 -283 41
-154 24 -281 44 -282 44 -4 0 -24 111 -21 120 3 10 466 300 478 300 4 0 12
-26 19 -57z m11642 -134 l256 -51 -37 -182 c-30 -151 -39 -181 -53 -180 -93 4
-91 1 -64 137 l24 116 -50 11 c-27 6 -51 9 -52 8 -2 -2 -12 -46 -22 -98 l-19
-95 -45 3 c-24 2 -47 6 -51 10 -4 4 1 52 11 105 l18 97 -23 6 c-13 3 -38 7
-55 7 l-33 2 -23 -114 c-12 -63 -25 -116 -27 -118 -5 -5 -86 14 -94 21 -6 6
55 341 65 359 6 10 -8 12 274 -44z m-71 -469 c113 -35 209 -66 213 -70 12 -10
-58 -230 -86 -271 -34 -51 -80 -71 -149 -66 -109 9 -168 68 -168 167 0 31 6
78 14 104 16 54 21 50 -91 82 -32 9 -59 17 -60 19 -3 2 27 106 33 117 3 4 24
1 47 -6 23 -7 134 -41 247 -76z m-11429 -17 c5 -15 11 -42 12 -61 l2 -34 -250
-73 c-137 -40 -252 -71 -255 -69 -5 6 -40 117 -37 120 6 6 485 143 500 143 10
1 22 -10 28 -26z m11245 -438 c136 -53 249 -97 251 -99 4 -3 -122 -335 -131
-343 -6 -6 -96 27 -96 36 0 4 18 53 40 110 22 56 40 105 40 107 0 5 -92 46
-95 42 -1 -2 -16 -43 -35 -93 -19 -49 -35 -92 -37 -94 -2 -3 -91 26 -100 34
-2 0 13 41 32 90 20 49 34 93 32 98 -1 5 -24 17 -49 27 l-47 18 -40 -105 c-23
-58 -41 -109 -41 -114 0 -5 -3 -9 -7 -9 -17 0 -103 34 -101 40 2 4 32 84 68
178 36 94 66 172 66 172 1 0 113 -43 250 -95z m-11553 -37 l29 -75 194 73
c106 41 198 74 203 74 10 0 55 -110 47 -117 -2 -2 -91 -37 -197 -78 -122 -46
-194 -79 -193 -87 1 -7 13 -43 27 -80 l26 -66 -40 -16 c-22 -9 -45 -16 -52
-16 -6 0 -43 82 -81 183 -38 100 -75 197 -83 215 l-14 33 43 19 c24 10 47 17
53 16 5 -1 23 -37 38 -78z m11390 -404 c127 -64 233 -118 235 -119 2 -2 -11
-30 -27 -64 l-31 -61 -145 0 c-80 0 -145 -3 -145 -7 0 -3 38 -57 85 -120 l85
-113 -30 -60 -30 -60 -240 120 c-132 66 -240 122 -240 125 0 11 51 105 57 105
3 0 63 -29 134 -65 70 -36 130 -65 134 -65 3 0 -21 37 -54 81 l-60 81 22 44
21 44 105 1 106 0 -137 70 c-76 38 -138 73 -138 79 0 16 44 100 52 100 5 0
113 -52 241 -116z m-10758 -3 l28 -60 -102 -150 c-56 -83 -100 -151 -96 -151
3 0 64 29 135 65 71 36 134 65 140 65 9 0 65 -99 58 -105 -2 -1 -110 -57 -240
-124 l-237 -122 -32 64 -32 63 102 146 c55 80 101 149 101 152 0 3 -63 -26
-141 -65 -78 -38 -142 -69 -144 -67 -1 2 -14 27 -29 55 l-26 52 22 15 c38 24
442 225 454 225 6 1 23 -26 39 -58z m356 -649 l99 -152 -128 -83 c-70 -46
-171 -112 -225 -146 -56 -37 -102 -60 -107 -55 -4 5 -51 75 -104 156 l-95 147
45 32 c25 17 46 29 48 27 65 -102 130 -198 133 -198 16 0 81 55 76 64 -4 6
-23 36 -43 66 -67 100 -66 95 -14 126 27 16 49 23 52 17 4 -5 29 -44 55 -86
l48 -76 44 27 c24 15 45 30 45 34 0 4 -29 53 -65 108 l-64 100 37 25 c20 14
43 24 50 23 7 -2 58 -72 113 -156z m10075 98 c78 -38 146 -111 164 -174 33
-119 -31 -259 -145 -319 -50 -26 -151 -27 -210 -2 -187 80 -252 253 -153 408
80 125 203 157 344 87z m-427 -450 c41 -74 61 -122 61 -144 0 -30 3 -33 21
-29 22 6 259 -56 259 -67 0 -14 -71 -100 -83 -100 -7 0 -52 13 -102 29 -82 27
-92 28 -117 15 -16 -8 -28 -16 -28 -19 0 -2 36 -32 80 -66 44 -34 80 -67 80
-72 0 -12 -62 -96 -72 -97 -4 0 -41 27 -83 61 -44 35 -83 58 -91 55 -27 -10
-14 -59 36 -138 28 -43 50 -82 50 -87 0 -12 -71 -101 -81 -101 -10 0 -115 187
-122 221 -6 22 -12 25 -54 27 -43 1 -236 52 -250 66 -8 7 70 105 84 106 7 0
55 -14 107 -30 80 -26 98 -29 115 -18 12 7 23 18 25 25 3 7 -30 40 -74 75 -44
35 -80 68 -80 73 0 6 18 30 38 53 l38 44 84 -67 c77 -60 86 -64 97 -49 22 30
15 57 -33 134 -26 41 -49 81 -51 88 -4 10 71 122 82 122 2 0 30 -50 64 -110z
m-9396 -16 c17 -25 32 -50 32 -54 0 -10 -426 -322 -432 -317 -23 24 -71 103
-65 109 18 18 418 307 425 308 4 0 22 -21 40 -46z m187 -243 c52 -31 113 -107
129 -161 40 -133 -32 -271 -176 -341 -148 -72 -341 34 -377 207 -6 29 -4 32
22 37 16 3 41 9 56 13 21 5 26 3 26 -13 0 -55 91 -143 147 -143 61 1 174 96
188 159 9 43 -26 114 -73 146 -20 14 -42 25 -49 25 -17 0 -16 16 3 67 19 50
28 50 104 4z m8853 -402 c103 -99 187 -186 187 -192 0 -5 -57 -68 -127 -139
l-127 -128 -38 36 -37 37 81 89 81 89 -33 34 -34 35 -73 -72 -73 -73 -37 37
-37 38 29 32 c16 18 48 52 70 76 l39 42 -37 37 -37 38 -90 -90 -90 -89 -35 34
c-19 19 -35 37 -35 41 0 9 250 269 259 269 4 0 91 -81 194 -181z m-8426 -64
c83 -35 152 -113 175 -199 14 -54 9 -62 -47 -71 l-40 -7 -26 59 c-31 71 -85
119 -124 109 -44 -11 -42 -47 6 -129 55 -92 64 -163 27 -216 -28 -42 -81 -71
-128 -71 -80 0 -190 83 -231 174 -32 70 -26 80 53 100 23 5 27 2 33 -22 7 -36
58 -98 94 -117 25 -12 31 -12 50 1 29 21 26 50 -12 114 -49 83 -60 115 -54
166 11 99 120 152 224 109z m8093 -266 c89 -105 163 -196 166 -203 5 -13 -68
-86 -85 -86 -5 0 -68 71 -141 158 -73 86 -135 158 -139 159 -3 1 -24 -13 -45
-31 l-40 -34 125 -147 c170 -200 158 -178 114 -217 -21 -18 -43 -36 -50 -40
-9 -6 -58 45 -151 156 l-137 164 -43 -35 -43 -36 107 -126 c58 -69 121 -143
140 -165 l34 -39 -43 -38 c-24 -21 -49 -38 -55 -39 -14 0 -339 387 -339 404 0
16 447 396 457 389 4 -2 80 -89 168 -194z m-4706 -485 c24 -9 20 -60 -5 -78
-21 -14 -22 -23 -21 -146 0 -140 4 -154 51 -163 31 -6 45 -29 36 -57 -10 -32
-63 -45 -180 -44 -152 0 -215 29 -185 83 8 15 21 21 45 21 43 0 47 11 43 145
l-3 100 -35 5 c-27 4 -36 10 -38 28 -4 29 11 48 60 73 64 33 187 50 232 33z
m469 -19 c22 -10 51 -36 65 -58 24 -37 27 -49 26 -131 -1 -103 -17 -154 -85
-261 -45 -72 -90 -115 -120 -115 -29 0 -77 27 -89 50 -8 16 -5 25 21 51 27 27
49 67 49 88 0 3 -18 7 -41 8 -53 2 -84 23 -110 75 -64 125 -17 272 98 308 43
14 144 6 186 -15z m503 6 c23 -10 54 -36 70 -57 28 -36 29 -43 29 -139 0 -99
-1 -103 -42 -187 -53 -105 -123 -188 -161 -188 -36 0 -92 35 -92 58 0 11 9 27
21 38 24 21 49 66 49 86 0 9 -14 14 -40 15 -52 2 -84 25 -109 77 -78 161 10
316 179 316 32 0 72 -8 96 -19z m593 10 c20 -13 10 -115 -14 -141 -16 -17 -31
-20 -112 -20 -97 0 -124 -13 -50 -24 67 -10 144 -51 167 -88 83 -136 -29 -288
-213 -288 -117 0 -173 43 -133 104 14 22 19 24 52 14 44 -12 79 -4 88 18 16
41 -21 75 -96 89 -57 11 -64 25 -50 103 17 99 51 201 73 223 17 17 34 19 147
19 70 0 133 -4 141 -9z m-1429 -810 c0 -38 1 -39 43 -46 143 -23 237 -125 237
-259 0 -32 -5 -76 -12 -97 -24 -83 -121 -156 -225 -174 -42 -7 -43 -8 -43 -46
l0 -39 -65 0 -65 0 0 39 0 38 -59 12 c-73 14 -144 60 -186 119 -28 41 -30 49
-30 142 0 93 2 101 30 142 41 58 113 105 186 120 l59 12 0 38 0 38 65 0 65 0
0 -39z m990 -46 l0 -65 -105 0 -105 0 0 -265 0 -265 -75 0 -75 0 0 265 0 265
-105 0 -105 0 0 65 0 65 285 0 285 0 0 -65z m370 -265 l0 -330 -80 0 -80 0 0
330 0 330 80 0 80 0 0 -330z"/>
<path d="M7796 14391 c-30 -5 -54 -14 -62 -26 -18 -25 -18 -31 6 -55 15 -15
33 -20 73 -20 70 0 76 6 70 63 -6 51 -2 49 -87 38z"/>
<path d="M7229 14305 c-75 -41 -56 -213 27 -252 40 -20 84 -5 105 34 32 60 -3
197 -57 221 -32 15 -43 15 -75 -3z"/>
<path d="M6655 14181 c-43 -18 -60 -50 -60 -110 1 -122 96 -191 174 -125 36
30 47 75 31 133 -21 77 -89 126 -145 102z"/>
<path d="M9946 14119 c-76 -59 -82 -191 -11 -229 79 -42 163 31 165 143 0 41
-5 53 -29 78 -36 36 -86 39 -125 8z"/>
<path d="M10518 13913 c-38 -42 -61 -93 -62 -141 -1 -37 4 -48 33 -74 26 -23
39 -28 60 -23 39 9 88 67 105 125 13 45 14 56 2 85 -26 61 -94 75 -138 28z"/>
<path d="M11419 13255 l-26 -42 21 -13 c111 -70 114 -72 134 -61 50 27 35 64
-46 119 l-57 39 -26 -42z"/>
<path d="M12335 12751 c-57 -35 -95 -92 -95 -143 0 -30 63 -88 94 -88 35 0 74
21 107 57 60 64 64 110 15 159 -39 39 -75 44 -121 15z"/>
<path d="M9945 12665 c-898 -73 -1050 -87 -1310 -116 -148 -16 -326 -38 -395
-48 l-125 -19 977 -1 977 -1 93 57 c51 31 143 80 203 110 l110 53 -60 -1 c-33
-1 -244 -16 -470 -34z"/>
<path d="M7265 12320 c-355 -91 -584 -174 -855 -308 l-195 -97 1601 -3 1601
-2 159 158 c87 87 197 189 242 225 l84 67 -1244 -1 -1243 0 -150 -39z"/>
<path d="M5938 11721 c-93 -75 -230 -217 -290 -301 -45 -63 -128 -207 -128
-222 0 -5 764 -8 1698 -8 l1697 1 190 279 c104 154 193 287 198 295 7 13 -180
15 -1642 15 l-1650 0 -73 -59z"/>
<path d="M5466 11053 c-18 -58 -37 -180 -42 -267 -6 -91 7 -261 22 -301 6 -13
171 -15 1578 -15 l1573 0 12 43 c25 84 125 325 182 440 l59 117 -1689 0
c-1600 0 -1690 -1 -1695 -17z"/>
<path d="M5490 10340 c0 -6 20 -50 44 -98 77 -154 178 -274 345 -414 l94 -78
1237 0 1237 0 7 68 c11 111 44 300 75 420 l29 112 -1534 0 c-1036 0 -1534 -3
-1534 -10z"/>
<path d="M6205 9604 c83 -52 417 -213 585 -281 96 -39 264 -103 373 -142 l198
-71 514 0 514 0 5 53 c7 69 36 430 36 451 0 15 -93 16 -1132 16 l-1133 -1 40
-25z"/>
<path d="M7800 8972 c8 -3 139 -42 290 -87 315 -93 287 -96 289 28 l1 67 -297
-1 c-164 0 -291 -3 -283 -7z"/>
<path d="M9026 8464 c-3 -26 -6 -69 -6 -95 l0 -49 300 0 c165 0 300 2 300 4 0
6 -199 71 -400 131 -85 25 -162 48 -171 51 -13 3 -18 -5 -23 -42z"/>
<path d="M9006 8163 c-11 -61 -68 -554 -64 -559 3 -2 481 -3 1063 -2 l1058 3
-122 83 c-239 164 -554 334 -844 456 l-109 46 -488 0 -488 0 -6 -27z"/>
<path d="M8876 7303 c-32 -143 -88 -344 -111 -405 -7 -17 67 -18 1454 -18 806
0 1461 4 1461 9 0 15 -124 215 -175 281 -27 36 -101 118 -164 183 l-114 117
-1156 0 -1156 0 -39 -167z"/>
<path d="M8666 6627 c-26 -67 -85 -196 -129 -287 -45 -91 -83 -168 -85 -172
-2 -5 757 -8 1687 -8 l1690 0 -4 33 c-2 17 -7 88 -10 157 -5 120 -28 253 -61
353 l-16 47 -1511 0 -1512 0 -49 -123z"/>
<path d="M8325 5958 c-91 -149 -207 -306 -351 -475 l-36 -43 1851 0 1851 0 40
81 c70 139 140 387 140 496 l0 23 -1722 0 -1723 -1 -50 -81z"/>
<path d="M7709 5183 c-68 -76 -193 -209 -278 -295 l-154 -158 1802 0 1801 0
83 51 c207 130 438 329 550 477 l48 62 -1864 0 -1864 0 -124 -137z"/>
<path d="M7059 4532 c-41 -37 -100 -91 -130 -120 -30 -28 -118 -98 -195 -155
l-141 -102 1329 -3 1330 -2 152 35 c415 97 891 254 1151 379 l70 34 -1745 1
-1745 1 -76 -68z"/>
<path d="M6335 3985 c-86 -48 -219 -108 -355 -162 l-85 -34 205 6 c698 20
1399 77 2075 171 482 66 532 61 -675 62 l-1085 1 -80 -44z"/>
<path d="M13002 12039 c-101 -40 -142 -140 -83 -200 40 -40 93 -40 148 0 53
39 73 68 73 109 0 44 -14 68 -50 87 -33 17 -54 18 -88 4z"/>
<path d="M13808 10643 l-47 -4 16 -42 c9 -23 18 -44 19 -46 2 -2 25 14 51 35
26 21 54 44 62 51 17 13 4 14 -101 6z"/>
<path d="M14185 9221 c-89 -22 -132 -73 -120 -145 11 -73 53 -106 135 -106 79
0 129 17 168 56 32 32 34 38 30 84 -3 29 -13 59 -24 71 -38 43 -111 59 -189
40z"/>
<path d="M14185 8401 c-44 -19 -65 -53 -65 -102 0 -75 61 -119 163 -119 111 0
166 35 174 112 6 51 -20 92 -73 114 -48 20 -151 17 -199 -5z"/>
<path d="M2288 7097 c-32 -18 -58 -35 -58 -38 0 -6 142 -21 147 -15 9 8 -11
86 -21 85 -6 0 -37 -15 -68 -32z"/>
<path d="M14051 6562 c-14 -57 -8 -78 30 -97 60 -32 96 -14 123 62 l14 41 -71
21 c-40 12 -75 21 -78 21 -3 0 -11 -22 -18 -48z"/>
<path d="M13248 5173 c-40 -25 -71 -87 -64 -128 11 -58 137 -154 204 -155 58
0 122 64 122 123 0 57 -41 107 -124 151 -56 30 -100 33 -138 9z"/>
<path d="M7977 3214 c-22 -22 11 -130 36 -121 7 2 13 19 15 38 3 50 -30 104
-51 83z"/>
<path d="M8485 3200 c-9 -29 3 -75 24 -94 16 -14 20 -15 30 -2 10 12 10 25 -1
63 -15 52 -42 69 -53 33z"/>
<path d="M7593 2370 c-57 -25 -83 -69 -83 -140 0 -71 26 -115 83 -140 l42 -19
3 79 c2 44 2 116 0 160 l-3 79 -42 -19z"/>
<path d="M7770 2230 l0 -160 37 15 c69 29 93 67 93 145 0 78 -24 116 -93 145
l-37 15 0 -160z"/>
</g>
</svg>
